<svg xmlns="http://www.w3.org/2000/svg" version="1.1" xmlns:xlink="http://www.w3.org/1999/xlink" xmlns:svgjs="http://svgjs.dev/svgjs" width="1000" height="234" viewBox="0 0 1000 234"><g transform="matrix(1,0,0,1,-0.6056348047761162,-0.5580035826241527)"><svg viewBox="0 0 396 93" data-background-color="#dedede" preserveAspectRatio="xMidYMid meet" height="234" width="1000" xmlns="http://www.w3.org/2000/svg" xmlns:xlink="http://www.w3.org/1999/xlink"><g id="tight-bounds" transform="matrix(1,0,0,1,0.24008861730862918,0.2217706546326781)"><svg viewBox="0 0 395.52 92.55640970561055" height="92.55640970561055" width="395.52"><g><svg viewBox="0 0 395.52 92.55640970561055" height="92.55640970561055" width="395.52"><g><svg viewBox="0 0 395.52 92.55640970561055" height="92.55640970561055" width="395.52"><g><svg viewBox="0 0 395.52 92.55640970561055" height="92.55640970561055" width="395.52"><g><svg viewBox="0 0 395.52 92.55640970561055" height="92.55640970561055" width="395.52"><path d="M394.594 19.852C392.735 10.244 387.435 7.573 387.435 7.573 371.165-2.322 350.86-0.189 332.619 1.233 300.414 1.29 268.339 3.404 236.208 4.538 168.767 4.71 100.749 1.867 33.643 8.88 27.339 11.032-6.54 9.303 1.121 21.081 3.129 25.981 10.456 31.419 10.232 35.915 11.236 36.703 12.631 34.897 13.226 36.03 15.309 39.085 18.711 37.644 21.501 39.451 17.614 44.273 20.403 48.289 23.062 52.497 18.377 53.592 12.371 53.074 9.675 56.705 9.396 59.338 7.89 58.838 6.235 58.723 5.026 58.646 2.59 58.934 2.999 59.76 4.394 62.585-1.594 64.218 2.162 66.985-0.422 69.983 3.948 72.577 3.353 75.824 3.278 76.477 3.687 77.034 4.338 77.188 7.22 78.014 3.018 79.628 3.464 81.377 33.029 93.328 65.104 85.066 95.394 90.561 103.259 86.719 97.346 91.926 100.489 91.119 102.943 90.177 104.728 94.078 107.499 91.868 107.927 91.234 107.276 89.735 108.8 90.023 109.6 90.177 110.307 90.139 110.418 89.255 110.586 87.929 109.117 88.755 108.726 88.064 112.947 84.567 111.906 92.886 115.866 92.541 115.68 91.522 114.528 90.062 116.889 90.254 119.232 88.794 119.306 87.583 121.389 90.869 121.463 91.58 121.835 92.079 122.43 92.425 128.938 88.851 135.409 93.693 142.233 92.079 146.417 90.312 150.433 93.04 154.672 92.368 156.16 91.83 157.666 90.869 159.098 92.483 176.632 92.829 195.319 91.388 211.943 92.541 256.364 90.389 303.835 93.424 350.674 90.581 361.719 89.485 373.192 87.929 383.958 86.68 383.958 86.68 392.679 83.26 392.679 67.888S394.538 54.438 394.817 42.198C395.096 29.958 396.398 29.459 394.538 19.852Z" opacity="1" fill="#000000" data-fill-palette-color="tertiary"></path><g transform="matrix(1,0,0,1,55.76832,26.230666666666668)"><svg width="283.98335999999995" viewBox="4.25 -35.150001525878906 252.48001098632812 35.650001525878906" height="40.09507637227722" data-palette-color="#dedede"><path d="M8.1 0L4.25 0 4.25-34.6 11.2-34.6 21-5.35 30.8-34.6 37.75-34.6 37.75 0 33.9 0 33.9-30.5 33.2-30.5 23.15-1.25 18.85-1.25 8.8-30.5 8.1-30.5 8.1 0ZM47 0L43.2 0 52.7-34.6 61.1-34.6 70.6 0 66.8 0 64.3-8.9 49.5-8.9 47 0ZM58.2-31.3L55.6-31.3 50.35-12.35 63.45-12.35 58.2-31.3ZM72.75-34.6L77.09-34.6 85.84-19.8 94.65-34.6 98.8-34.6 88.15-17.05 98.8 0 94.45 0 85.75-14.35 76.89 0 72.75 0 83.45-16.95 72.75-34.6ZM124.49-31.75L124.49-31.75Q116.99-31.75 116.99-26.1L116.99-26.1Q116.99-22.95 118.72-21.78 120.44-20.6 125.72-19.43 130.99-18.25 133.19-16.38 135.39-14.5 135.39-10.2L135.39-10.2Q135.39 0.45 124.34 0.45L124.34 0.45Q120.69 0.45 115.19-0.4L115.19-0.4 113.39-0.65 113.79-3.85Q120.59-2.95 124.14-2.95L124.14-2.95Q131.54-2.95 131.54-9.9L131.54-9.9Q131.54-12.7 129.92-13.93 128.29-15.15 123.84-16L123.84-16Q117.99-17.25 115.54-19.23 113.09-21.2 113.09-25.85L113.09-25.85Q113.09-35.15 124.24-35.15L124.24-35.15Q127.89-35.15 132.99-34.4L132.99-34.4 134.69-34.15 134.34-30.9Q127.39-31.75 124.49-31.75ZM167.29 0L163.49 0 163.49-15.65 145.89-15.65 145.89 0 142.04 0 142.04-34.6 145.89-34.6 145.89-19.1 163.49-19.1 163.49-34.6 167.29-34.6 167.29 0ZM178.34-17.15Q178.34-9.55 180.34-6.23 182.34-2.9 188.06-2.9 193.79-2.9 195.76-6.15 197.74-9.4 197.74-17.05 197.74-24.7 195.69-28.2 193.64-31.7 188.01-31.7 182.39-31.7 180.36-28.23 178.34-24.75 178.34-17.15ZM201.74-17.05Q201.74-7.8 198.79-3.65 195.84 0.5 188.06 0.5 180.29 0.5 177.34-3.75 174.39-8 174.39-17.13 174.39-26.25 177.39-30.68 180.39-35.1 188.04-35.1 195.69-35.1 198.71-30.7 201.74-26.3 201.74-17.05ZM229.83 0L208.78 0 208.78-34.6 229.83-34.6 229.83-31.2 212.63-31.2 212.63-19.25 226.83-19.25 226.83-15.9 212.63-15.9 212.63-3.4 229.83-3.4 229.83 0ZM245.83-31.75L245.83-31.75Q238.33-31.75 238.33-26.1L238.33-26.1Q238.33-22.95 240.06-21.78 241.78-20.6 247.06-19.43 252.33-18.25 254.53-16.38 256.73-14.5 256.73-10.2L256.73-10.2Q256.73 0.45 245.68 0.45L245.68 0.45Q242.03 0.45 236.53-0.4L236.53-0.4 234.73-0.65 235.13-3.85Q241.93-2.95 245.48-2.95L245.48-2.95Q252.88-2.95 252.88-9.9L252.88-9.9Q252.88-12.7 251.26-13.93 249.63-15.15 245.18-16L245.18-16Q239.33-17.25 236.88-19.23 234.43-21.2 234.43-25.85L234.43-25.85Q234.43-35.15 245.58-35.15L245.58-35.15Q249.23-35.15 254.33-34.4L254.33-34.4 256.03-34.15 255.68-30.9Q248.73-31.75 245.83-31.75Z" opacity="1" transform="matrix(1,0,0,1,0,0)" fill="#dedede" class="undefined-text-0" data-fill-palette-color="quaternary" id="text-0"></path></svg></g></svg></g></svg></g></svg></g><g></g></svg></g><defs></defs></svg><rect width="395.52" height="92.55640970561055" fill="none" stroke="none" visibility="hidden"></rect></g></svg></g></svg>